<?xml version="1.0" encoding="utf-8"?>
<!-- Generator: Adobe Illustrator 16.0.0, SVG Export Plug-In . SVG Version: 6.00 Build 0)  -->
<!DOCTYPE svg PUBLIC "-//W3C//DTD SVG 1.1//EN" "http://www.w3.org/Graphics/SVG/1.1/DTD/svg11.dtd">
<svg version="1.1" id="Layer_1" xmlns="http://www.w3.org/2000/svg" xmlns:xlink="http://www.w3.org/1999/xlink" x="0px" y="0px"
	width="100%" height="100%" xml:space="preserve">
<line fill="none" stroke="#000507" stroke-width="0.25" stroke-miterlimit="10" x1="0.00%" x2="30.17%" y1="0.00%" y2="52.24%"/>
<line fill="none" stroke="#000507" stroke-width="0.25" stroke-miterlimit="10" x1="30.17%" x2="60.70%" y1="52.24%" y2="25.37%"/>
<line fill="none" stroke="#000507" stroke-width="0.25" stroke-miterlimit="10" x1="60.70%" x2="79.46%" y1="25.37%" y2="50.06%"/>
<line fill="none" stroke="#000507" stroke-width="0.25" stroke-miterlimit="10" x1="79.46%" x2="100.01%" y1="50.06%" y2="21.67%"/>
<line fill="none" stroke="#000507" stroke-width="0.25" stroke-miterlimit="10" x1="60.70%" x2="65.69%" y1="25.37%" y2="0.00%"/>
<line fill="none" stroke="#000507" stroke-width="0.25" stroke-miterlimit="10" x1="30.17%" x2="0.00%" y1="52.24%" y2="59.30%"/>
<line fill="none" stroke="#000507" stroke-width="0.25" stroke-miterlimit="10" x1="30.17%" x2="56.42%" y1="52.24%" y2="71.06%"/>
<line fill="none" stroke="#000507" stroke-width="0.25" stroke-miterlimit="10" x1="56.42%" x2="40.39%" y1="71.06%" y2="99.95%"/>
<line fill="none" stroke="#000507" stroke-width="0.25" stroke-miterlimit="10" x1="56.42%" x2="100.01%" y1="71.06%" y2="77.78%"/>
<line fill="none" stroke="#000507" stroke-width="0.25" stroke-miterlimit="10" x1="79.46%" x2="55.59%" y1="50.06%" y2="71.06%"/>
<line fill="none" stroke="#000507" stroke-width="0.25" stroke-miterlimit="10" x1="79.46%" x2="100.01%" y1="50.06%" y2="77.78%"/>
<line fill="none" stroke="#000507" stroke-width="0.25" stroke-miterlimit="10" x1="60.70%" x2="32.55%" y1="25.37%" y2="17.97%"/>
<line fill="none" stroke="#000507" stroke-width="0.25" stroke-miterlimit="10" x1="32.55%" x2="34.57%" y1="17.97%" y2="0.00%"/>
<line fill="none" stroke="#000507" stroke-width="0.25" stroke-miterlimit="10" x1="32.55%" x2="0.00%" y1="17.97%" y2="0.00%"/>
<line fill="none" stroke="#000507" stroke-width="0.25" stroke-miterlimit="10" x1="32.55%" x2="30.17%" y1="17.97%" y2="52.24%"/>
<line fill="none" stroke="#000507" stroke-width="0.25" stroke-miterlimit="10" x1="30.17%" x2="0.00%" y1="52.24%" y2="82.15%"/>
<line fill="none" stroke="#000507" stroke-width="0.25" stroke-miterlimit="10" x1="30.17%" x2="32.55%" y1="52.24%" y2="83.49%"/>
<line fill="none" stroke="#000507" stroke-width="0.25" stroke-miterlimit="10" x1="32.55%" x2="0.48%" y1="83.49%" y2="99.95%"/>
<line fill="none" stroke="#000507" stroke-width="0.25" stroke-miterlimit="10" x1="32.55%" x2="56.42%" y1="83.49%" y2="71.06%"/>
<line fill="none" stroke="#000507" stroke-width="0.25" stroke-miterlimit="10" x1="56.42%" x2="70.79%" y1="71.06%" y2="99.95%"/>
<line fill="none" stroke="#000507" stroke-width="0.25" stroke-miterlimit="10" x1="32.55%" x2="39.79%" y1="83.49%" y2="99.95%"/>
<line fill="none" stroke="#000507" stroke-width="0.25" stroke-miterlimit="10" x1="60.70%" x2="100.61%" y1="25.37%" y2="0.00%"/>
<line fill="none" stroke="#000507" stroke-width="0.25" stroke-miterlimit="10" x1="79.46%" x2="29.46%" y1="50.06%" y2="52.24%"/>
<line fill="none" stroke="#000507" stroke-width="0.25" stroke-miterlimit="10" x1="79.46%" x2="83.50%" y1="50.06%" y2="10.92%"/>
<line fill="none" stroke="#000507" stroke-width="0.25" stroke-miterlimit="10" x1="17.22%" x2="0.24%" y1="29.73%" y2="42.67%"/></svg>