<?xml version="1.0" encoding="utf-8"?><!-- Generator: Adobe Illustrator 16.0.0, SVG Export Plug-In . SVG Version: 6.00 Build 0)  --><!DOCTYPE svg PUBLIC "-//W3C//DTD SVG 1.1//EN" "http://www.w3.org/Graphics/SVG/1.1/DTD/svg11.dtd"><svg version="1.1" id="Layer_1" xmlns="http://www.w3.org/2000/svg" xmlns:xlink="http://www.w3.org/1999/xlink" x="0px" y="0px"	width="100%" height="100%" xml:space="preserve"><line fill="none" stroke="#696265" stroke-width="0.75" stroke-miterlimit="10" x1="0.00%" x2="5.70%" y1="25.87%" y2="37.29%"/><line fill="none" stroke="#696265" stroke-width="0.75" stroke-miterlimit="10" x1="5.70%" x2="18.41%" y1="37.29%" y2="30.57%"/><line fill="none" stroke="#696265" stroke-width="0.75" stroke-miterlimit="10" x1="18.41%" x2="39.91%" y1="30.57%" y2="51.07%"/><line fill="none" stroke="#696265" stroke-width="0.75" stroke-miterlimit="10" x1="39.91%" x2="50.01%" y1="51.07%" y2="27.89%"/><line fill="none" stroke="#696265" stroke-width="0.75" stroke-miterlimit="10" x1="50.01%" x2="81.72%" y1="27.89%" y2="44.01%"/><line fill="none" stroke="#696265" stroke-width="0.75" stroke-miterlimit="10" x1="81.72%" x2="66.04%" y1="44.01%" y2="63.00%"/><line fill="none" stroke="#696265" stroke-width="0.75" stroke-miterlimit="10" x1="66.04%" x2="100.01%" y1="63.00%" y2="84.50%"/><line fill="none" stroke="#696265" stroke-width="0.75" stroke-miterlimit="10" x1="66.04%" x2="100.01%" y1="63.00%" y2="73.75%"/><line fill="none" stroke="#696265" stroke-width="0.75" stroke-miterlimit="10" x1="66.04%" x2="55.95%" y1="63.00%" y2="100.12%"/><line fill="none" stroke="#696265" stroke-width="0.75" stroke-miterlimit="10" x1="66.04%" x2="0.00%" y1="63.00%" y2="100.12%"/><line fill="none" stroke="#696265" stroke-width="0.75" stroke-miterlimit="10" x1="66.04%" x2="0.00%" y1="63.00%" y2="54.26%"/><line fill="none" stroke="#696265" stroke-width="0.75" stroke-miterlimit="10" x1="5.70%" x2="0.00%" y1="37.29%" y2="54.26%"/><line fill="none" stroke="#696265" stroke-width="0.75" stroke-miterlimit="10" x1="50.01%" x2="100.61%" y1="27.89%" y2="0.00%"/><line fill="none" stroke="#696265" stroke-width="0.75" stroke-miterlimit="10" x1="18.41%" x2="0.00%" y1="30.57%" y2="0.00%"/><line fill="none" stroke="#696265" stroke-width="0.75" stroke-miterlimit="10" x1="39.91%" x2="0.00%" y1="51.07%" y2="54.26%"/><line fill="none" stroke="#696265" stroke-width="0.75" stroke-miterlimit="10" x1="39.91%" x2="66.04%" y1="51.07%" y2="63.00%"/><line fill="none" stroke="#696265" stroke-width="0.75" stroke-miterlimit="10" x1="29.70%" x2="55.95%" y1="83.49%" y2="100.12%"/><line fill="none" stroke="#696265" stroke-width="0.75" stroke-miterlimit="10" x1="29.70%" x2="0.00%" y1="83.49%" y2="54.26%"/><line fill="none" stroke="#696265" stroke-width="0.75" stroke-miterlimit="10" x1="81.72%" x2="100.01%" y1="44.01%" y2="73.75%"/><line fill="none" stroke="#696265" stroke-width="0.75" stroke-miterlimit="10" x1="81.72%" x2="100.01%" y1="44.01%" y2="0.34%"/><line fill="none" stroke="#696265" stroke-width="0.75" stroke-miterlimit="10" x1="66.64%" x2="76.97%" y1="99.95%" y2="85.51%"/><line fill="none" stroke="#696265" stroke-width="0.75" stroke-miterlimit="10" x1="76.97%" x2="100.01%" y1="85.51%" y2="99.95%"/><line fill="none" stroke="#696265" stroke-width="0.75" stroke-miterlimit="10" x1="76.97%" x2="66.04%" y1="85.51%" y2="63.00%"/><line fill="none" stroke="#696265" stroke-width="0.75" stroke-miterlimit="10" x1="100.01%" x2="92.17%" y1="25.87%" y2="40.82%"/><line fill="none" stroke="#696265" stroke-width="0.75" stroke-miterlimit="10" x1="92.17%" x2="100.01%" y1="40.82%" y2="56.95%"/><line fill="none" stroke="#696265" stroke-width="0.75" stroke-miterlimit="10" x1="92.17%" x2="81.72%" y1="40.82%" y2="44.01%"/><line fill="none" stroke="#696265" stroke-width="0.75" stroke-miterlimit="10" x1="0.00%" x2="8.31%" y1="68.37%" y2="80.63%"/><line fill="none" stroke="#696265" stroke-width="0.75" stroke-miterlimit="10" x1="8.31%" x2="0.00%" y1="80.63%" y2="91.89%"/><line fill="none" stroke="#696265" stroke-width="0.75" stroke-miterlimit="10" x1="8.31%" x2="29.70%" y1="80.63%" y2="83.49%"/><line fill="none" stroke="#696265" stroke-width="0.75" stroke-miterlimit="10" x1="19.96%" x2="27.68%" y1="99.95%" y2="92.73%"/><line fill="none" stroke="#696265" stroke-width="0.75" stroke-miterlimit="10" x1="27.68%" x2="38.60%" y1="92.73%" y2="99.95%"/><line fill="none" stroke="#696265" stroke-width="0.75" stroke-miterlimit="10" x1="27.68%" x2="29.70%" y1="92.73%" y2="83.49%"/><line fill="none" stroke="#696265" stroke-width="0.75" stroke-miterlimit="10" x1="13.90%" x2="30.29%" y1="0.34%" y2="16.29%"/><line fill="none" stroke="#696265" stroke-width="0.75" stroke-miterlimit="10" x1="30.29%" x2="36.82%" y1="16.29%" y2="0.00%"/><line fill="none" stroke="#696265" stroke-width="0.75" stroke-miterlimit="10" x1="30.29%" x2="18.41%" y1="16.29%" y2="30.57%"/><line fill="none" stroke="#696265" stroke-width="0.75" stroke-miterlimit="10" x1="30.29%" x2="39.91%" y1="16.29%" y2="51.07%"/><line fill="none" stroke="#696265" stroke-width="0.75" stroke-miterlimit="10" x1="30.29%" x2="50.01%" y1="16.29%" y2="27.89%"/><line fill="none" stroke="#696265" stroke-width="0.75" stroke-miterlimit="10" x1="36.82%" x2="50.01%" y1="0.00%" y2="10.42%"/></svg>