<?xml version="1.0" encoding="utf-8"?><!-- Generator: Adobe Illustrator 16.0.0, SVG Export Plug-In . SVG Version: 6.00 Build 0)  --><!DOCTYPE svg PUBLIC "-//W3C//DTD SVG 1.1//EN" "http://www.w3.org/Graphics/SVG/1.1/DTD/svg11.dtd"><svg version="1.1" id="Layer_1" xmlns="http://www.w3.org/2000/svg" xmlns:xlink="http://www.w3.org/1999/xlink" x="0px" y="0px"	width="100%" height="100%" xml:space="preserve"><line fill="none" stroke="#6E6E7C" stroke-miterlimit="10" x1="9.50%" x2="0.00%" y1="126.49%" y2="108.35%"/><line fill="none" stroke="#6E6E7C" stroke-miterlimit="10" x1="102.27%" x2="112.84%" y1="126.49%" y2="108.35%"/><line fill="none" stroke="#6E6E7C" stroke-miterlimit="10" x1="102.27%" x2="59.39%" y1="126.49%" y2="64.00%"/><line fill="none" stroke="#6E6E7C" stroke-miterlimit="10" x1="59.39%" x2="9.50%" y1="64.00%" y2="126.49%"/><line fill="none" stroke="#6E6E7C" stroke-miterlimit="10" x1="59.39%" x2="0.00%" y1="64.00%" y2="0.00%"/><line fill="none" stroke="#6E6E7C" stroke-miterlimit="10" x1="59.39%" x2="112.84%" y1="64.00%" y2="108.35%"/><line fill="none" stroke="#6E6E7C" stroke-miterlimit="10" x1="112.84%" x2="107.50%" y1="108.35%" y2="0.00%"/><line fill="none" stroke="#6E6E7C" stroke-miterlimit="10" x1="112.84%" x2="100.73%" y1="99.11%" y2="0.00%"/><line fill="none" stroke="#6E6E7C" stroke-miterlimit="10" x1="112.84%" x2="92.65%" y1="86.01%" y2="0.00%"/><line fill="none" stroke="#6E6E7C" stroke-miterlimit="10" x1="112.84%" x2="84.33%" y1="74.75%" y2="0.00%"/><line fill="none" stroke="#6E6E7C" stroke-miterlimit="10" x1="112.84%" x2="76.97%" y1="64.00%" y2="0.00%"/><line fill="none" stroke="#6E6E7C" stroke-miterlimit="10" x1="112.84%" x2="66.16%" y1="51.57%" y2="0.00%"/><line fill="none" stroke="#6E6E7C" stroke-miterlimit="10" x1="112.84%" x2="56.42%" y1="40.32%" y2="0.00%"/><line fill="none" stroke="#6E6E7C" stroke-miterlimit="10" x1="112.84%" x2="46.44%" y1="28.39%" y2="0.00%"/><line fill="none" stroke="#6E6E7C" stroke-miterlimit="10" x1="112.84%" x2="36.70%" y1="17.64%" y2="0.00%"/><line fill="none" stroke="#6E6E7C" stroke-miterlimit="10" x1="112.84%" x2="29.70%" y1="8.74%" y2="0.00%"/><line fill="none" stroke="#6E6E7C" stroke-miterlimit="10" x1="9.50%" x2="102.27%" y1="126.49%" y2="126.49%"/><line fill="none" stroke="#6E6E7C" stroke-miterlimit="10" x1="9.50%" x2="52.26%" y1="126.49%" y2="56.28%"/><line fill="none" stroke="#6E6E7C" stroke-miterlimit="10" x1="14.85%" x2="44.90%" y1="119.61%" y2="48.21%"/><line fill="none" stroke="#6E6E7C" stroke-miterlimit="10" x1="21.86%" x2="37.53%" y1="110.87%" y2="40.32%"/><line fill="none" stroke="#6E6E7C" stroke-miterlimit="10" x1="29.70%" x2="29.70%" y1="101.46%" y2="31.92%"/><line fill="none" stroke="#6E6E7C" stroke-miterlimit="10" x1="35.75%" x2="21.86%" y1="93.57%" y2="23.52%"/><line fill="none" stroke="#6E6E7C" stroke-miterlimit="10" x1="43.35%" x2="13.30%" y1="83.99%" y2="14.28%"/><line fill="none" stroke="#6E6E7C" stroke-miterlimit="10" x1="52.26%" x2="0.95%" y1="72.91%" y2="1.01%"/><line fill="none" stroke="#6E6E7C" stroke-miterlimit="10" x1="14.85%" x2="102.27%" y1="119.61%" y2="126.49%"/><line fill="none" stroke="#6E6E7C" stroke-miterlimit="10" x1="21.86%" x2="88.25%" y1="110.87%" y2="126.49%"/><line fill="none" stroke="#6E6E7C" stroke-miterlimit="10" x1="29.70%" x2="71.27%" y1="101.46%" y2="126.49%"/><line fill="none" stroke="#6E6E7C" stroke-miterlimit="10" x1="35.75%" x2="56.42%" y1="93.57%" y2="126.49%"/><line fill="none" stroke="#6E6E7C" stroke-miterlimit="10" x1="43.35%" x2="46.09%" y1="83.99%" y2="126.49%"/><line fill="none" stroke="#6E6E7C" stroke-miterlimit="10" x1="52.26%" x2="33.50%" y1="72.91%" y2="126.49%"/><line fill="none" stroke="#6E6E7C" stroke-miterlimit="10" x1="59.39%" x2="20.19%" y1="64.00%" y2="126.49%"/><line fill="none" stroke="#6E6E7C" stroke-miterlimit="10" x1="0.95%" x2="112.84%" y1="1.01%" y2="95.25%"/><line fill="none" stroke="#6E6E7C" stroke-miterlimit="10" x1="13.30%" x2="111.77%" y1="14.28%" y2="86.01%"/><line fill="none" stroke="#6E6E7C" stroke-miterlimit="10" x1="21.86%" x2="109.52%" y1="23.52%" y2="71.90%"/><line fill="none" stroke="#6E6E7C" stroke-miterlimit="10" x1="29.70%" x2="105.71%" y1="31.92%" y2="56.28%"/><line fill="none" stroke="#6E6E7C" stroke-miterlimit="10" x1="37.53%" x2="100.73%" y1="40.32%" y2="43.34%"/><line fill="none" stroke="#6E6E7C" stroke-miterlimit="10" x1="44.90%" x2="94.43%" y1="48.21%" y2="31.25%"/><line fill="none" stroke="#6E6E7C" stroke-miterlimit="10" x1="52.26%" x2="84.33%" y1="56.28%" y2="20.16%"/><line fill="none" stroke="#6E6E7C" stroke-miterlimit="10" x1="59.39%" x2="79.70%" y1="64.00%" y2="16.63%"/><line fill="none" stroke="#6E6E7C" stroke-miterlimit="10" x1="102.27%" x2="112.84%" y1="126.49%" y2="95.25%"/><line fill="none" stroke="#6E6E7C" stroke-miterlimit="10" x1="102.27%" x2="111.77%" y1="126.49%" y2="86.01%"/><line fill="none" stroke="#6E6E7C" stroke-miterlimit="10" x1="102.27%" x2="109.52%" y1="126.49%" y2="71.90%"/><line fill="none" stroke="#6E6E7C" stroke-miterlimit="10" x1="102.27%" x2="105.71%" y1="126.49%" y2="56.28%"/><line fill="none" stroke="#6E6E7C" stroke-miterlimit="10" x1="102.27%" x2="100.73%" y1="126.49%" y2="43.34%"/><line fill="none" stroke="#6E6E7C" stroke-miterlimit="10" x1="102.27%" x2="94.43%" y1="126.49%" y2="31.25%"/><line fill="none" stroke="#6E6E7C" stroke-miterlimit="10" x1="102.27%" x2="84.33%" y1="126.49%" y2="20.16%"/><line fill="none" stroke="#6E6E7C" stroke-miterlimit="10" x1="102.27%" x2="79.70%" y1="126.49%" y2="16.63%"/><line fill="none" stroke="#6E6E7C" stroke-miterlimit="10" x1="102.27%" x2="52.26%" y1="126.49%" y2="72.91%"/><line fill="none" stroke="#6E6E7C" stroke-miterlimit="10" x1="102.27%" x2="43.35%" y1="126.49%" y2="83.99%"/><line fill="none" stroke="#6E6E7C" stroke-miterlimit="10" x1="102.27%" x2="35.75%" y1="126.49%" y2="93.57%"/><line fill="none" stroke="#6E6E7C" stroke-miterlimit="10" x1="102.27%" x2="31.00%" y1="126.49%" y2="102.30%"/><line fill="none" stroke="#6E6E7C" stroke-miterlimit="10" x1="102.27%" x2="71.27%" y1="126.49%" y2="10.58%"/><line fill="none" stroke="#6E6E7C" stroke-miterlimit="10" x1="71.27%" x2="59.39%" y1="10.58%" y2="64.00%"/><line fill="none" stroke="#6E6E7C" stroke-miterlimit="10" x1="9.50%" x2="0.00%" y1="126.49%" y2="64.00%"/><line fill="none" stroke="#6E6E7C" stroke-miterlimit="10" x1="0.00%" x2="17.10%" y1="64.00%" y2="113.90%"/><line fill="none" stroke="#6E6E7C" stroke-miterlimit="10" x1="0.00%" x2="25.54%" y1="64.00%" y2="94.07%"/><line fill="none" stroke="#6E6E7C" stroke-miterlimit="10" x1="0.00%" x2="29.70%" y1="64.00%" y2="75.59%"/><line fill="none" stroke="#6E6E7C" stroke-miterlimit="10" x1="0.00%" x2="29.70%" y1="64.00%" y2="62.83%"/><line fill="none" stroke="#6E6E7C" stroke-miterlimit="10" x1="0.00%" x2="25.54%" y1="64.00%" y2="44.18%"/><line fill="none" stroke="#6E6E7C" stroke-miterlimit="10" x1="0.00%" x2="17.58%" y1="64.00%" y2="24.19%"/><line fill="none" stroke="#6E6E7C" stroke-miterlimit="10" x1="0.12%" x2="2.49%" y1="64.00%" y2="3.36%"/><line fill="none" stroke="#6E6E7C" stroke-miterlimit="10" x1="0.95%" x2="71.27%" y1="1.01%" y2="10.58%"/><line fill="none" stroke="#6E6E7C" stroke-miterlimit="10" x1="37.53%" x2="71.27%" y1="31.25%" y2="10.58%"/><line fill="none" stroke="#6E6E7C" stroke-miterlimit="10" x1="63.90%" x2="37.06%" y1="9.58%" y2="31.92%"/><line fill="none" stroke="#6E6E7C" stroke-miterlimit="10" x1="46.44%" x2="56.78%" y1="25.70%" y2="8.74%"/><line fill="none" stroke="#6E6E7C" stroke-miterlimit="10" x1="53.33%" x2="50.48%" y1="21.67%" y2="7.90%"/><line fill="none" stroke="#6E6E7C" stroke-miterlimit="10" x1="59.39%" x2="34.45%" y1="17.81%" y2="5.71%"/><line fill="none" stroke="#6E6E7C" stroke-miterlimit="10" x1="65.69%" x2="0.12%" y1="14.28%" y2="1.01%"/><line fill="none" stroke="#6E6E7C" stroke-miterlimit="10" x1="46.44%" x2="64.26%" y1="25.70%" y2="41.66%"/><line fill="none" stroke="#6E6E7C" stroke-miterlimit="10" x1="53.33%" x2="64.26%" y1="21.67%" y2="41.66%"/><line fill="none" stroke="#6E6E7C" stroke-miterlimit="10" x1="59.39%" x2="64.26%" y1="17.81%" y2="41.66%"/><line fill="none" stroke="#6E6E7C" stroke-miterlimit="10" x1="65.69%" x2="64.14%" y1="14.28%" y2="40.32%"/><line fill="none" stroke="#6E6E7C" stroke-miterlimit="10" x1="6.65%" x2="41.93%" y1="5.71%" y2="9.41%"/></svg>