
<svg version="1.1" id="Layer_1" xmlns="http://www.w3.org/2000/svg" xmlns:xlink="http://www.w3.org/1999/xlink" x="0px" y="0px"
	 width="100%" height="612px" viewBox="0 0 792 612" enable-background="new 0 0 1000 612" xml:space="preserve">
<line fill="none" stroke="#000000" stroke-miterlimit="10" x1="0" y1="0" x2="146" y2="199"/>
<line fill="none" stroke="#000000" stroke-miterlimit="10" x1="146" y1="199" x2="214" y2="73"/>
<line fill="none" stroke="#000000" stroke-miterlimit="10" x1="214" y1="73" x2="313" y2="324"/>
<line fill="none" stroke="#000000" stroke-miterlimit="10" x1="313" y1="324" x2="342" y2="177"/>
<line fill="none" stroke="#000000" stroke-miterlimit="10" x1="342" y1="177" x2="544" y2="250.5"/>
<line fill="none" stroke="#000000" stroke-miterlimit="10" x1="544" y1="250.5" x2="499" y2="112"/>
<line fill="none" stroke="#000000" stroke-miterlimit="10" x1="499" y1="112" x2="696" y2="146"/>
<line fill="none" stroke="#000000" stroke-miterlimit="10" x1="696" y1="146" x2="792" y2="0"/>
<line fill="none" stroke="#000000" stroke-miterlimit="10" x1="544" y1="250.5" x2="423" y2="295"/>
<line fill="none" stroke="#000000" stroke-miterlimit="10" x1="423" y1="295" x2="588" y2="391"/>
<line fill="none" stroke="#000000" stroke-miterlimit="10" x1="588" y1="391" x2="462" y2="468"/>
<line fill="none" stroke="#000000" stroke-miterlimit="10" x1="462" y1="468" x2="627" y2="526"/>
<line fill="none" stroke="#000000" stroke-miterlimit="10" x1="627" y1="526" x2="559" y2="612"/>
<line fill="none" stroke="#000000" stroke-miterlimit="10" x1="559" y1="617" x2="559" y2="612"/>
<line fill="none" stroke="#000000" stroke-miterlimit="10" x1="0" y1="612" x2="34" y2="479"/>
<line fill="none" stroke="#000000" stroke-miterlimit="10" x1="34" y1="479" x2="146" y2="518"/>
<line fill="none" stroke="#000000" stroke-miterlimit="10" x1="146" y1="518" x2="186" y2="391"/>
<line fill="none" stroke="#000000" stroke-miterlimit="10" x1="186" y1="391" x2="351" y2="518"/>
<line fill="none" stroke="#000000" stroke-miterlimit="10" x1="351" y1="518" x2="396" y2="406"/>
<line fill="none" stroke="#000000" stroke-miterlimit="10" x1="396" y1="406" x2="462" y2="468"/>
<line fill="none" stroke="#000000" stroke-miterlimit="10" x1="313" y1="324" x2="186" y2="391"/>
<line fill="none" stroke="#000000" stroke-miterlimit="10" x1="186" y1="391" x2="96" y2="300"/>
<line fill="none" stroke="#000000" stroke-miterlimit="10" x1="96" y1="300" x2="0" y2="374"/>
<line fill="none" stroke="#000000" stroke-miterlimit="10" x1="96" y1="300" x2="146" y2="199"/>
<line fill="none" stroke="#000000" stroke-miterlimit="10" x1="214" y1="73" x2="298" y2="0"/>
<line fill="none" stroke="#000000" stroke-miterlimit="10" x1="342" y1="177" x2="383" y2="0"/>
<line fill="none" stroke="#000000" stroke-miterlimit="10" x1="499" y1="112" x2="521.5" y2="0"/>
<line fill="none" stroke="#000000" stroke-miterlimit="10" x1="696" y1="146" x2="797" y2="234"/>
<line fill="none" stroke="#000000" stroke-miterlimit="10" x1="423" y1="295" x2="313" y2="324"/>
<line fill="none" stroke="#000000" stroke-miterlimit="10" x1="313" y1="324" x2="396" y2="406"/>
<line fill="none" stroke="#000000" stroke-miterlimit="10" x1="351" y1="518" x2="291" y2="617"/>
<line fill="none" stroke="#000000" stroke-miterlimit="10" x1="146" y1="518" x2="160" y2="612"/>
<line fill="none" stroke="#000000" stroke-miterlimit="10" x1="588" y1="391" x2="684" y2="318"/>
<line fill="none" stroke="#000000" stroke-miterlimit="10" x1="684" y1="318" x2="744" y2="468"/>
<line fill="none" stroke="#000000" stroke-miterlimit="10" x1="744" y1="468" x2="792" y2="474"/>
<line fill="none" stroke="#000000" stroke-miterlimit="10" x1="627" y1="526" x2="779" y2="603"/>
<line fill="none" stroke="#000000" stroke-miterlimit="10" x1="779" y1="603" x2="797" y2="612"/>
<line fill="none" stroke="#000000" stroke-miterlimit="10" x1="627" y1="526" x2="744" y2="468"/>
<line fill="none" stroke="#000000" stroke-miterlimit="10" x1="684" y1="318" x2="696" y2="146"/>
<line fill="none" stroke="#000000" stroke-miterlimit="10" x1="544" y1="250.5" x2="696" y2="146"/>
<line fill="none" stroke="#000000" stroke-miterlimit="10" x1="544" y1="250.5" x2="588" y2="384"/>
<line fill="none" stroke="#000000" stroke-miterlimit="10" x1="588" y1="384" x2="588" y2="391"/>
<line fill="none" stroke="#000000" stroke-miterlimit="10" x1="544" y1="250.5" x2="684" y2="318"/>
<line fill="none" stroke="#000000" stroke-miterlimit="10" x1="462" y1="468" x2="462" y2="612"/>
<line fill="none" stroke="#000000" stroke-miterlimit="10" x1="351" y1="518" x2="462" y2="468"/>
<line fill="none" stroke="#000000" stroke-miterlimit="10" x1="351" y1="518" x2="383" y2="612"/>
<line fill="none" stroke="#000000" stroke-miterlimit="10" x1="34" y1="479" x2="0" y2="462"/>
<line fill="none" stroke="#000000" stroke-miterlimit="10" x1="214" y1="73" x2="106" y2="0"/>
<line fill="none" stroke="#000000" stroke-miterlimit="10" x1="146" y1="199" x2="0" y2="213.75"/>
<line fill="none" stroke="#000000" stroke-miterlimit="10" x1="499" y1="112" x2="342" y2="177"/>
<line fill="none" stroke="#000000" stroke-miterlimit="10" x1="423" y1="295" x2="342" y2="177"/>
<line fill="none" stroke="#000000" stroke-miterlimit="10" x1="146" y1="199" x2="186" y2="391"/>
<line fill="none" stroke="#000000" stroke-miterlimit="10" x1="146" y1="199" x2="313" y2="324"/>
<line fill="none" stroke="#000000" stroke-miterlimit="10" x1="588" y1="391" x2="744" y2="468"/>
<line fill="none" stroke="#000000" stroke-miterlimit="10" x1="588" y1="391" x2="627" y2="526"/>
<line fill="none" stroke="#000000" stroke-miterlimit="10" x1="423" y1="295" x2="462" y2="468"/>
<line fill="none" stroke="#000000" stroke-miterlimit="10" x1="499" y1="112" x2="383" y2="0"/>
<line fill="none" stroke="#000000" stroke-miterlimit="10" x1="214" y1="73" x2="342" y2="177"/>
<line fill="none" stroke="#000000" stroke-miterlimit="10" x1="186" y1="391" x2="396" y2="406"/>
</svg>
