<?xml version="1.0" encoding="utf-8"?>
<!-- Generator: Adobe Illustrator 16.0.0, SVG Export Plug-In . SVG Version: 6.00 Build 0)  -->
<!DOCTYPE svg PUBLIC "-//W3C//DTD SVG 1.1//EN" "http://www.w3.org/Graphics/SVG/1.1/DTD/svg11.dtd">
<svg version="1.1" id="Layer_1" xmlns="http://www.w3.org/2000/svg" xmlns:xlink="http://www.w3.org/1999/xlink" x="0px" y="0px"
	 width="841.891px" height="595.281px" viewBox="0 0 841.891 595.281" enable-background="new 0 0 841.891 595.281"
	 xml:space="preserve">
<line fill="none" stroke="#6E6E7C" stroke-miterlimit="10" x1="70.971" y1="594.983" x2="0" y2="509.976"/>
<line fill="none" stroke="#6E6E7C" stroke-miterlimit="10" x1="763.005" y1="594.983" x2="841.974" y2="509.976"/>
<line fill="none" stroke="#6E6E7C" stroke-miterlimit="10" x1="763.005" y1="594.983" x2="443.003" y2="300.974"/>
<line fill="none" stroke="#6E6E7C" stroke-miterlimit="10" x1="443.003" y1="300.974" x2="70.971" y2="594.983"/>
<line fill="none" stroke="#6E6E7C" stroke-miterlimit="10" x1="443.003" y1="300.974" x2="0" y2="0"/>
<line fill="none" stroke="#6E6E7C" stroke-miterlimit="10" x1="443.003" y1="300.974" x2="841.974" y2="509.976"/>
<line fill="none" stroke="#6E6E7C" stroke-miterlimit="10" x1="841.974" y1="509.976" x2="801.984" y2="0"/>
<line fill="none" stroke="#6E6E7C" stroke-miterlimit="10" x1="841.974" y1="465.986" x2="751.976" y2="0"/>
<line fill="none" stroke="#6E6E7C" stroke-miterlimit="10" x1="841.974" y1="405.029" x2="691.023" y2="0"/>
<line fill="none" stroke="#6E6E7C" stroke-miterlimit="10" x1="841.974" y1="351.989" x2="628.976" y2="0"/>
<line fill="none" stroke="#6E6E7C" stroke-miterlimit="10" x1="841.974" y1="300.974" x2="574.001" y2="0"/>
<line fill="none" stroke="#6E6E7C" stroke-miterlimit="10" x1="841.974" y1="242.994" x2="494.021" y2="0"/>
<line fill="none" stroke="#6E6E7C" stroke-miterlimit="10" x1="841.974" y1="190.013" x2="421.029" y2="0"/>
<line fill="none" stroke="#6E6E7C" stroke-miterlimit="10" x1="841.974" y1="133.998" x2="347.027" y2="0"/>
<line fill="none" stroke="#6E6E7C" stroke-miterlimit="10" x1="841.974" y1="82.982" x2="274.035" y2="0"/>
<line fill="none" stroke="#6E6E7C" stroke-miterlimit="10" x1="841.974" y1="41.014" x2="222.007" y2="0"/>
<line fill="none" stroke="#6E6E7C" stroke-miterlimit="10" x1="70.971" y1="594.983" x2="763.005" y2="594.983"/>
<line fill="none" stroke="#6E6E7C" stroke-miterlimit="10" x1="70.971" y1="594.983" x2="389.964" y2="265.018"/>
<line fill="none" stroke="#6E6E7C" stroke-miterlimit="10" x1="110.961" y1="563.016" x2="334.988" y2="226.98"/>
<line fill="none" stroke="#6E6E7C" stroke-miterlimit="10" x1="162.99" y1="522.002" x2="280.012" y2="190.013"/>
<line fill="none" stroke="#6E6E7C" stroke-miterlimit="10" x1="222.007" y1="476.998" x2="222.007" y2="150.01"/>
<line fill="none" stroke="#6E6E7C" stroke-miterlimit="10" x1="266.964" y1="439.972" x2="162.99" y2="111.02"/>
<line fill="none" stroke="#6E6E7C" stroke-miterlimit="10" x1="323.959" y1="395.028" x2="99.007" y2="67.029"/>
<line fill="none" stroke="#6E6E7C" stroke-miterlimit="10" x1="389.964" y1="343.001" x2="6.988" y2="5.001"/>
<line fill="none" stroke="#6E6E7C" stroke-miterlimit="10" x1="110.961" y1="563.016" x2="763.005" y2="594.983"/>
<line fill="none" stroke="#6E6E7C" stroke-miterlimit="10" x1="162.99" y1="522.002" x2="659.031" y2="594.983"/>
<line fill="none" stroke="#6E6E7C" stroke-miterlimit="10" x1="6.988" y1="5.001" x2="841.974" y2="448.009"/>
<line fill="none" stroke="#6E6E7C" stroke-miterlimit="10" x1="162.99" y1="111.02" x2="816.969" y2="338.001"/>
<line fill="none" stroke="#6E6E7C" stroke-miterlimit="10" x1="222.007" y1="150.01" x2="789.019" y2="265.018"/>
<line fill="none" stroke="#6E6E7C" stroke-miterlimit="10" x1="280.012" y1="190.013" x2="751.976" y2="204.003"/>
<line fill="none" stroke="#6E6E7C" stroke-miterlimit="10" x1="334.988" y1="226.98" x2="704.999" y2="146.974"/>
<line fill="none" stroke="#6E6E7C" stroke-miterlimit="10" x1="389.964" y1="265.018" x2="628.976" y2="95.007"/>
<line fill="none" stroke="#6E6E7C" stroke-miterlimit="10" x1="763.005" y1="594.983" x2="841.974" y2="448.009"/>
<line fill="none" stroke="#6E6E7C" stroke-miterlimit="10" x1="763.005" y1="594.983" x2="833.976" y2="405.029"/>
<line fill="none" stroke="#6E6E7C" stroke-miterlimit="10" x1="763.005" y1="594.983" x2="816.969" y2="338.001"/>
<line fill="none" stroke="#6E6E7C" stroke-miterlimit="10" x1="763.005" y1="594.983" x2="789.019" y2="265.018"/>
<line fill="none" stroke="#6E6E7C" stroke-miterlimit="10" x1="763.005" y1="594.983" x2="389.964" y2="343.001"/>
<line fill="none" stroke="#6E6E7C" stroke-miterlimit="10" x1="763.005" y1="594.983" x2="323.959" y2="395.028"/>
<line fill="none" stroke="#6E6E7C" stroke-miterlimit="10" x1="763.005" y1="594.983" x2="266.964" y2="439.972"/>
<line fill="none" stroke="#6E6E7C" stroke-miterlimit="10" x1="763.005" y1="594.983" x2="231.014" y2="480.987"/>
<line fill="none" stroke="#6E6E7C" stroke-miterlimit="10" x1="531.99" y1="50.004" x2="443.003" y2="300.974"/>
<line fill="none" stroke="#6E6E7C" stroke-miterlimit="10" x1="70.971" y1="594.983" x2="0" y2="300.974"/>
<line fill="none" stroke="#6E6E7C" stroke-miterlimit="10" x1="0" y1="300.974" x2="127.968" y2="535.991"/>
<line fill="none" stroke="#6E6E7C" stroke-miterlimit="10" x1="0" y1="300.974" x2="191.025" y2="443.008"/>
<line fill="none" stroke="#6E6E7C" stroke-miterlimit="10" x1="0" y1="300.974" x2="222.007" y2="355.978"/>
<line fill="none" stroke="#6E6E7C" stroke-miterlimit="10" x1="0" y1="300.974" x2="222.007" y2="295.973"/>
<line fill="none" stroke="#6E6E7C" stroke-miterlimit="10" x1="0" y1="300.974" x2="191.025" y2="207.991"/>
<line fill="none" stroke="#6E6E7C" stroke-miterlimit="10" x1="0" y1="300.974" x2="130.998" y2="113.996"/>
<line fill="none" stroke="#6E6E7C" stroke-miterlimit="10" x1="1.01" y1="300.974" x2="19.027" y2="16.013"/>
<line fill="none" stroke="#6E6E7C" stroke-miterlimit="10" x1="6.988" y1="5.001" x2="531.99" y2="50.004"/>
<line fill="none" stroke="#6E6E7C" stroke-miterlimit="10" x1="280.012" y1="146.974" x2="531.99" y2="50.004"/>
<line fill="none" stroke="#6E6E7C" stroke-miterlimit="10" x1="489.98" y1="67.029" x2="1.01" y2="5.001"/>
<line fill="none" stroke="#6E6E7C" stroke-miterlimit="10" x1="443.003" y1="83.994" x2="479.962" y2="196.026"/>
<line fill="none" stroke="#6E6E7C" stroke-miterlimit="10" x1="489.98" y1="67.029" x2="479.036" y2="190.013"/>
<line fill="none" stroke="#6E6E7C" stroke-miterlimit="10" x1="280.012" y1="151.975" x2="50.009" y2="11.012"/>
<line fill="none" stroke="#6E6E7C" stroke-miterlimit="10" x1="443.003" y1="83.994" x2="58.168" y2="16.013"/>
<line fill="none" stroke="#6E6E7C" stroke-miterlimit="10" x1="347.027" y1="121.497" x2="58.168" y2="16.013"/>
<line fill="none" stroke="#6E6E7C" stroke-miterlimit="10" x1="347.027" y1="121.497" x2="479.962" y2="196.026"/>
</svg>
