<?xml version="1.0" encoding="utf-8"?><!-- Generator: Adobe Illustrator 16.0.0, SVG Export Plug-In . SVG Version: 6.00 Build 0)  --><!DOCTYPE svg PUBLIC "-//W3C//DTD SVG 1.1//EN" "http://www.w3.org/Graphics/SVG/1.1/DTD/svg11.dtd"><svg version="1.1" id="Layer_1" xmlns="http://www.w3.org/2000/svg" xmlns:xlink="http://www.w3.org/1999/xlink" x="0px" y="0px"	width="100%" height="100%" xml:space="preserve"><line fill="none" stroke="#FFFFFF" stroke-width="0.25" stroke-miterlimit="10" x1="0.00%" x2="25.30%" y1="0.00%" y2="70.55%"/><line fill="none" stroke="#FFFFFF" stroke-width="0.25" stroke-miterlimit="10" x1="25.30%" x2="35.16%" y1="70.55%" y2="22.01%"/><line fill="none" stroke="#FFFFFF" stroke-width="0.25" stroke-miterlimit="10" x1="35.16%" x2="48.46%" y1="22.01%" y2="66.36%"/><line fill="none" stroke="#FFFFFF" stroke-width="0.25" stroke-miterlimit="10" x1="48.46%" x2="61.77%" y1="66.36%" y2="30.74%"/><line fill="none" stroke="#FFFFFF" stroke-width="0.25" stroke-miterlimit="10" x1="61.77%" x2="72.10%" y1="30.74%" y2="60.64%"/><line fill="none" stroke="#FFFFFF" stroke-width="0.25" stroke-miterlimit="10" x1="72.10%" x2="79.70%" y1="60.64%" y2="41.16%"/><line fill="none" stroke="#FFFFFF" stroke-width="0.25" stroke-miterlimit="10" x1="79.70%" x2="86.59%" y1="41.16%" y2="55.60%"/><line fill="none" stroke="#FFFFFF" stroke-width="0.25" stroke-miterlimit="10" x1="86.59%" x2="92.29%" y1="55.60%" y2="44.18%"/><line fill="none" stroke="#FFFFFF" stroke-width="0.25" stroke-miterlimit="10" x1="92.29%" x2="95.97%" y1="44.18%" y2="51.74%"/><line fill="none" stroke="#FFFFFF" stroke-width="0.25" stroke-miterlimit="10" x1="95.97%" x2="98.71%" y1="51.74%" y2="48.04%"/><line fill="none" stroke="#FFFFFF" stroke-width="0.25" stroke-miterlimit="10" x1="98.71%" x2="100.01%" y1="48.04%" y2="48.55%"/><line fill="none" stroke="#FFFFFF" stroke-width="0.25" stroke-miterlimit="10" x1="0.36%" x2="22.92%" y1="99.95%" y2="22.01%"/><line fill="none" stroke="#FFFFFF" stroke-width="0.25" stroke-miterlimit="10" x1="22.92%" x2="35.16%" y1="22.01%" y2="62.49%"/><line fill="none" stroke="#FFFFFF" stroke-width="0.25" stroke-miterlimit="10" x1="35.16%" x2="47.16%" y1="62.49%" y2="32.76%"/><line fill="none" stroke="#FFFFFF" stroke-width="0.25" stroke-miterlimit="10" x1="47.16%" x2="61.77%" y1="32.76%" y2="57.96%"/><line fill="none" stroke="#FFFFFF" stroke-width="0.25" stroke-miterlimit="10" x1="61.77%" x2="71.39%" y1="57.96%" y2="40.15%"/><line fill="none" stroke="#FFFFFF" stroke-width="0.25" stroke-miterlimit="10" x1="71.39%" x2="79.70%" y1="40.15%" y2="57.96%"/><line fill="none" stroke="#FFFFFF" stroke-width="0.25" stroke-miterlimit="10" x1="79.70%" x2="85.05%" y1="57.96%" y2="44.18%"/><line fill="none" stroke="#FFFFFF" stroke-width="0.25" stroke-miterlimit="10" x1="85.05%" x2="92.29%" y1="44.18%" y2="54.26%"/><line fill="none" stroke="#FFFFFF" stroke-width="0.25" stroke-miterlimit="10" x1="92.29%" x2="95.97%" y1="54.26%" y2="45.36%"/><line fill="none" stroke="#FFFFFF" stroke-width="0.25" stroke-miterlimit="10" x1="95.97%" x2="98.71%" y1="45.36%" y2="51.07%"/><line fill="none" stroke="#FFFFFF" stroke-width="0.25" stroke-miterlimit="10" x1="98.71%" x2="100.01%" y1="51.07%" y2="50.90%"/><line fill="none" stroke="#FFFFFF" stroke-width="0.25" stroke-miterlimit="10" x1="25.30%" x2="100.49%" y1="70.55%" y2="99.95%"/><line fill="none" stroke="#FFFFFF" stroke-width="0.25" stroke-miterlimit="10" x1="22.92%" x2="100.01%" y1="22.01%" y2="0.00%"/><line fill="none" stroke="#FFFFFF" stroke-width="0.25" stroke-miterlimit="10" x1="35.16%" x2="61.77%" y1="22.01%" y2="30.74%"/><line fill="none" stroke="#FFFFFF" stroke-width="0.25" stroke-miterlimit="10" x1="35.16%" x2="48.46%" y1="62.49%" y2="66.36%"/><line fill="none" stroke="#FFFFFF" stroke-width="0.25" stroke-miterlimit="10" x1="48.46%" x2="100.01%" y1="66.36%" y2="99.78%"/><line fill="none" stroke="#FFFFFF" stroke-width="0.25" stroke-miterlimit="10" x1="35.16%" x2="100.49%" y1="22.01%" y2="0.00%"/><line fill="none" stroke="#FFFFFF" stroke-width="0.25" stroke-miterlimit="10" x1="61.77%" x2="99.42%" y1="30.74%" y2="0.17%"/><line fill="none" stroke="#FFFFFF" stroke-width="0.25" stroke-miterlimit="10" x1="48.46%" x2="61.77%" y1="66.36%" y2="57.96%"/><line fill="none" stroke="#FFFFFF" stroke-width="0.25" stroke-miterlimit="10" x1="61.77%" x2="100.49%" y1="57.96%" y2="99.95%"/><line fill="none" stroke="#FFFFFF" stroke-width="0.25" stroke-miterlimit="10" x1="71.39%" x2="99.42%" y1="40.15%" y2="0.17%"/><line fill="none" stroke="#FFFFFF" stroke-width="0.25" stroke-miterlimit="10" x1="72.10%" x2="100.01%" y1="60.64%" y2="99.78%"/><line fill="none" stroke="#FFFFFF" stroke-width="0.25" stroke-miterlimit="10" x1="79.70%" x2="99.42%" y1="41.16%" y2="0.17%"/><line fill="none" stroke="#FFFFFF" stroke-width="0.25" stroke-miterlimit="10" x1="79.70%" x2="100.01%" y1="57.96%" y2="99.78%"/><line fill="none" stroke="#FFFFFF" stroke-width="0.25" stroke-miterlimit="10" x1="85.05%" x2="100.01%" y1="44.18%" y2="0.00%"/><line fill="none" stroke="#FFFFFF" stroke-width="0.25" stroke-miterlimit="10" x1="86.59%" x2="100.01%" y1="55.60%" y2="99.78%"/><line fill="none" stroke="#FFFFFF" stroke-width="0.25" stroke-miterlimit="10" x1="92.29%" x2="100.01%" y1="44.18%" y2="0.00%"/><line fill="none" stroke="#FFFFFF" stroke-width="0.25" stroke-miterlimit="10" x1="92.29%" x2="100.01%" y1="54.26%" y2="99.78%"/><line fill="none" stroke="#FFFFFF" stroke-width="0.25" stroke-miterlimit="10" x1="95.97%" x2="99.78%" y1="45.36%" y2="1.18%"/><line fill="none" stroke="#FFFFFF" stroke-width="0.25" stroke-miterlimit="10" x1="95.97%" x2="100.01%" y1="51.74%" y2="99.78%"/></svg>