<?xml version="1.0" encoding="utf-8"?>
<!-- Generator: Adobe Illustrator 16.0.0, SVG Export Plug-In . SVG Version: 6.00 Build 0)  -->
<!DOCTYPE svg PUBLIC "-//W3C//DTD SVG 1.1//EN" "http://www.w3.org/Graphics/SVG/1.1/DTD/svg11.dtd">
<svg version="1.1" id="Layer_1" xmlns="http://www.w3.org/2000/svg" xmlns:xlink="http://www.w3.org/1999/xlink" x="0px" y="0px"
	 width="100%" height="100%" enable-background="new 0 0 841.89 595.28" xml:space="preserve">
<line fill="none" stroke="black" stroke-width="0.25" stroke-miterlimit="10" x1="0.00%" x2="25.80%" y1="0.00%" y2="14.29%"/>
<line fill="none" stroke="black" stroke-width="0.25" stroke-miterlimit="10" x1="25.80%" x2="17.72%" y1="14.29%" y2="33.78%"/>
<line fill="none" stroke="black" stroke-width="0.25" stroke-miterlimit="10" x1="17.72%" x2="36.50%" y1="33.78%" y2="30.08%"/>
<line fill="none" stroke="black" stroke-width="0.25" stroke-miterlimit="10" x1="36.50%" x2="35.32%" y1="30.08%" y2="57.14%"/>
<line fill="none" stroke="black" stroke-width="0.25" stroke-miterlimit="10" x1="35.32%" x2="48.87%" y1="57.14%" y2="28.57%"/>
<line fill="none" stroke="black" stroke-width="0.25" stroke-miterlimit="10" x1="48.87%" x2="76.10%" y1="28.57%" y2="52.27%"/>
<line fill="none" stroke="black" stroke-width="0.25" stroke-miterlimit="10" x1="76.10%" x2="81.81%" y1="52.27%" y2="24.03%"/>
<line fill="none" stroke="black" stroke-width="0.25" stroke-miterlimit="10" x1="81.81%" x2="100.12%" y1="24.03%" y2="50.08%"/>
<line fill="none" stroke="black" stroke-width="0.25" stroke-miterlimit="10" x1="0.00%" x2="9.27%" y1="26.39%" y2="22.69%"/>
<line fill="none" stroke="black" stroke-width="0.25" stroke-miterlimit="10" x1="9.27%" x2="5.59%" y1="22.69%" y2="56.13%"/>
<line fill="none" stroke="black" stroke-width="0.25" stroke-miterlimit="10" x1="5.59%" x2="21.76%" y1="56.13%" y2="52.27%"/>
<line fill="none" stroke="black" stroke-width="0.25" stroke-miterlimit="10" x1="21.76%" x2="21.76%" y1="52.27%" y2="91.26%"/>
<line fill="none" stroke="black" stroke-width="0.25" stroke-miterlimit="10" x1="21.76%" x2="50.06%" y1="91.26%" y2="76.81%"/>
<line fill="none" stroke="black" stroke-width="0.25" stroke-miterlimit="10" x1="50.06%" x2="52.08%" y1="76.81%" y2="90.25%"/>
<line fill="none" stroke="black" stroke-width="0.25" stroke-miterlimit="10" x1="52.08%" x2="57.79%" y1="90.25%" y2="57.14%"/>
<line fill="none" stroke="black" stroke-width="0.25" stroke-miterlimit="10" x1="57.79%" x2="84.07%" y1="57.14%" y2="81.01%"/>
<line fill="none" stroke="black" stroke-width="0.25" stroke-miterlimit="10" x1="84.07%" x2="89.18%" y1="81.01%" y2="60.34%"/>
<line fill="none" stroke="black" stroke-width="0.25" stroke-miterlimit="10" x1="89.18%" x2="99.41%" y1="60.34%" y2="100.00%"/>
<line fill="none" stroke="black" stroke-width="0.25" stroke-miterlimit="10" x1="28.78%" x2="43.16%" y1="0.00%" y2="9.58%"/>
<line fill="none" stroke="black" stroke-width="0.25" stroke-miterlimit="10" x1="43.16%" x2="41.14%" y1="9.58%" y2="20.34%"/>
<line fill="none" stroke="black" stroke-width="0.25" stroke-miterlimit="10" x1="41.14%" x2="51.01%" y1="20.34%" y2="15.97%"/>
<line fill="none" stroke="black" stroke-width="0.25" stroke-miterlimit="10" x1="51.01%" x2="68.49%" y1="15.97%" y2="26.39%"/>
<line fill="none" stroke="black" stroke-width="0.25" stroke-miterlimit="10" x1="68.49%" x2="65.99%" y1="26.39%" y2="0.00%"/>
<line fill="none" stroke="black" stroke-width="0.25" stroke-miterlimit="10" x1="65.99%" x2="100.12%" y1="0.00%" y2="9.58%"/>
<line fill="none" stroke="black" stroke-width="0.25" stroke-miterlimit="10" x1="100.12%" x2="81.81%" y1="9.58%" y2="24.03%"/>
<line fill="none" stroke="black" stroke-width="0.25" stroke-miterlimit="10" x1="81.81%" x2="65.99%" y1="24.03%" y2="0.00%"/>
<line fill="none" stroke="black" stroke-width="0.25" stroke-miterlimit="10" x1="68.49%" x2="76.10%" y1="26.39%" y2="52.27%"/>
<line fill="none" stroke="black" stroke-width="0.25" stroke-miterlimit="10" x1="48.87%" x2="51.01%" y1="28.57%" y2="15.97%"/>
<line fill="none" stroke="black" stroke-width="0.25" stroke-miterlimit="10" x1="36.50%" x2="41.14%" y1="30.08%" y2="20.34%"/>
<line fill="none" stroke="black" stroke-width="0.25" stroke-miterlimit="10" x1="9.27%" x2="25.80%" y1="22.69%" y2="14.29%"/>
<line fill="none" stroke="black" stroke-width="0.25" stroke-miterlimit="10" x1="17.72%" x2="5.59%" y1="33.78%" y2="56.13%"/>
<line fill="none" stroke="black" stroke-width="0.25" stroke-miterlimit="10" x1="21.76%" x2="36.50%" y1="52.27%" y2="30.08%"/>
<line fill="none" stroke="black" stroke-width="0.25" stroke-miterlimit="10" x1="35.32%" x2="21.76%" y1="57.14%" y2="91.26%"/>
<line fill="none" stroke="black" stroke-width="0.25" stroke-miterlimit="10" x1="35.32%" x2="50.06%" y1="57.14%" y2="76.81%"/>
<line fill="none" stroke="black" stroke-width="0.25" stroke-miterlimit="10" x1="57.79%" x2="48.87%" y1="57.14%" y2="28.57%"/>
<line fill="none" stroke="black" stroke-width="0.25" stroke-miterlimit="10" x1="76.10%" x2="84.07%" y1="52.27%" y2="81.01%"/>
<line fill="none" stroke="black" stroke-width="0.25" stroke-miterlimit="10" x1="89.18%" x2="81.81%" y1="60.34%" y2="24.03%"/>
<line fill="none" stroke="black" stroke-width="0.25" stroke-miterlimit="10" x1="46.14%" x2="52.08%" y1="0.00%" y2="4.71%"/>
<line fill="none" stroke="black" stroke-width="0.25" stroke-miterlimit="10" x1="52.08%" x2="50.06%" y1="4.71%" y2="8.40%"/>
<line fill="none" stroke="black" stroke-width="0.25" stroke-miterlimit="10" x1="50.06%" x2="61.95%" y1="8.40%" y2="9.58%"/>
<line fill="none" stroke="black" stroke-width="0.25" stroke-miterlimit="10" x1="61.95%" x2="59.81%" y1="9.58%" y2="0.00%"/>
<line fill="none" stroke="black" stroke-width="0.25" stroke-miterlimit="10" x1="61.95%" x2="68.49%" y1="9.58%" y2="26.39%"/>
<line fill="none" stroke="black" stroke-width="0.25" stroke-miterlimit="10" x1="50.06%" x2="41.14%" y1="8.40%" y2="20.34%"/>
<line fill="none" stroke="black" stroke-width="0.25" stroke-miterlimit="10" x1="0.00%" x2="12.25%" y1="76.81%" y2="71.76%"/>
<line fill="none" stroke="black" stroke-width="0.25" stroke-miterlimit="10" x1="12.25%" x2="9.27%" y1="71.76%" y2="99.83%"/>
<line fill="none" stroke="black" stroke-width="0.25" stroke-miterlimit="10" x1="34.01%" x2="39.36%" y1="100.00%" y2="96.30%"/>
<line fill="none" stroke="black" stroke-width="0.25" stroke-miterlimit="10" x1="39.36%" x2="42.69%" y1="96.30%" y2="100.00%"/>
<line fill="none" stroke="black" stroke-width="0.25" stroke-miterlimit="10" x1="67.90%" x2="66.71%" y1="100.00%" y2="89.41%"/>
<line fill="none" stroke="black" stroke-width="0.25" stroke-miterlimit="10" x1="66.71%" x2="81.81%" y1="89.24%" y2="100.00%"/>
<line fill="none" stroke="black" stroke-width="0.25" stroke-miterlimit="10" x1="89.42%" x2="89.77%" y1="61.34%" y2="100.00%"/>
<line fill="none" stroke="black" stroke-width="0.25" stroke-miterlimit="10" x1="12.25%" x2="21.76%" y1="71.76%" y2="52.27%"/>
<line fill="none" stroke="black" stroke-width="0.25" stroke-miterlimit="10" x1="21.76%" x2="17.00%" y1="91.26%" y2="100.34%"/>
<line fill="none" stroke="black" stroke-width="0.25" stroke-miterlimit="10" x1="50.06%" x2="39.36%" y1="76.81%" y2="96.30%"/>
<line fill="none" stroke="black" stroke-width="0.25" stroke-miterlimit="10" x1="52.08%" x2="59.81%" y1="90.25%" y2="100.00%"/>
<line fill="none" stroke="black" stroke-width="0.25" stroke-miterlimit="10" x1="52.08%" x2="48.87%" y1="90.25%" y2="99.83%"/>
<line fill="none" stroke="black" stroke-width="0.25" stroke-miterlimit="10" x1="57.79%" x2="66.71%" y1="57.14%" y2="89.41%"/>
<line fill="none" stroke="black" stroke-width="0.25" stroke-miterlimit="10" x1="50.06%" x2="57.79%" y1="76.81%" y2="57.14%"/>
<line fill="none" stroke="black" stroke-width="0.25" stroke-miterlimit="10" x1="50.06%" x2="48.87%" y1="76.81%" y2="28.57%"/>
<line fill="none" stroke="black" stroke-width="0.25" stroke-miterlimit="10" x1="84.07%" x2="89.77%" y1="81.01%" y2="100.00%"/>
<line fill="none" stroke="black" stroke-width="0.25" stroke-miterlimit="10" x1="89.18%" x2="100.12%" y1="60.34%" y2="50.08%"/>
<line fill="none" stroke="black" stroke-width="0.25" stroke-miterlimit="10" x1="5.59%" x2="0.00%" y1="56.13%" y2="65.55%"/>
<line fill="none" stroke="black" stroke-width="0.25" stroke-miterlimit="10" x1="36.50%" x2="43.16%" y1="30.08%" y2="9.58%"/>
<line fill="none" stroke="black" stroke-width="0.25" stroke-miterlimit="10" x1="43.16%" x2="25.80%" y1="9.58%" y2="14.29%"/>
<line fill="none" stroke="black" stroke-width="0.25" stroke-miterlimit="10" x1="52.08%" x2="66.71%" y1="90.25%" y2="89.41%"/>
<line fill="none" stroke="black" stroke-width="0.25" stroke-miterlimit="10" x1="12.25%" x2="21.76%" y1="71.76%" y2="91.26%"/>
<line fill="none" stroke="black" stroke-width="0.25" stroke-miterlimit="10" x1="41.14%" x2="48.87%" y1="20.34%" y2="28.57%"/>
<line fill="none" stroke="black" stroke-width="0.25" stroke-miterlimit="10" x1="50.06%" x2="51.01%" y1="8.40%" y2="15.97%"/>
<line fill="none" stroke="black" stroke-width="0.25" stroke-miterlimit="10" x1="43.16%" x2="52.08%" y1="9.58%" y2="4.71%"/>
<line fill="none" stroke="black" stroke-width="0.25" stroke-miterlimit="10" x1="52.08%" x2="61.95%" y1="4.71%" y2="9.58%"/>
<line fill="none" stroke="black" stroke-width="0.25" stroke-miterlimit="10" x1="52.08%" x2="28.78%" y1="4.71%" y2="0.00%"/>
<line fill="none" stroke="black" stroke-width="0.25" stroke-miterlimit="10" x1="52.08%" x2="59.81%" y1="4.71%" y2="0.00%"/>
<line fill="none" stroke="black" stroke-width="0.25" stroke-miterlimit="10" x1="51.01%" x2="61.95%" y1="15.97%" y2="9.58%"/>
<line fill="none" stroke="black" stroke-width="0.25" stroke-miterlimit="10" x1="48.87%" x2="68.49%" y1="28.57%" y2="26.39%"/>
<line fill="none" stroke="black" stroke-width="0.25" stroke-miterlimit="10" x1="61.95%" x2="65.99%" y1="9.58%" y2="0.00%"/>
<line fill="none" stroke="black" stroke-width="0.25" stroke-miterlimit="10" x1="25.80%" x2="28.78%" y1="14.29%" y2="0.00%"/>
<line fill="none" stroke="black" stroke-width="0.25" stroke-miterlimit="10" x1="36.50%" x2="25.80%" y1="30.08%" y2="14.29%"/>
<line fill="none" stroke="black" stroke-width="0.25" stroke-miterlimit="10" x1="68.49%" x2="81.81%" y1="26.39%" y2="24.03%"/>
<line fill="none" stroke="black" stroke-width="0.25" stroke-miterlimit="10" x1="12.25%" x2="0.48%" y1="71.76%" y2="94.62%"/>
<line fill="none" stroke="black" stroke-width="0.25" stroke-miterlimit="10" x1="21.76%" x2="39.36%" y1="91.26%" y2="96.30%"/>
<line fill="none" stroke="black" stroke-width="0.25" stroke-miterlimit="10" x1="66.71%" x2="60.88%" y1="89.41%" y2="100.00%"/>
<line fill="none" stroke="black" stroke-width="0.25" stroke-miterlimit="10" x1="52.08%" x2="39.36%" y1="90.25%" y2="96.30%"/>
<line fill="none" stroke="black" stroke-width="0.25" stroke-miterlimit="10" x1="66.71%" x2="84.07%" y1="89.41%" y2="81.01%"/>
<line fill="none" stroke="black" stroke-width="0.25" stroke-miterlimit="10" x1="89.18%" x2="100.12%" y1="60.34%" y2="66.55%"/>
<line fill="none" stroke="black" stroke-width="0.25" stroke-miterlimit="10" x1="84.07%" x2="81.81%" y1="81.01%" y2="100.00%"/>
<line fill="none" stroke="black" stroke-width="0.25" stroke-miterlimit="10" x1="21.76%" x2="34.01%" y1="91.26%" y2="100.00%"/>
<line fill="none" stroke="black" stroke-width="0.25" stroke-miterlimit="10" x1="21.76%" x2="9.27%" y1="91.26%" y2="99.83%"/>
<line fill="none" stroke="black" stroke-width="0.25" stroke-miterlimit="10" x1="9.27%" x2="0.48%" y1="99.83%" y2="94.62%"/>
<line fill="none" stroke="black" stroke-width="0.25" stroke-miterlimit="10" x1="76.10%" x2="57.79%" y1="52.27%" y2="57.14%"/>
<line fill="none" stroke="black" stroke-width="0.25" stroke-miterlimit="10" x1="89.18%" x2="76.10%" y1="60.34%" y2="52.27%"/>
<line fill="none" stroke="black" stroke-width="0.25" stroke-miterlimit="10" x1="21.76%" x2="35.32%" y1="52.27%" y2="57.14%"/>
<line fill="none" stroke="black" stroke-width="0.25" stroke-miterlimit="10" x1="17.72%" x2="21.76%" y1="33.78%" y2="52.27%"/>
<line fill="none" stroke="black" stroke-width="0.25" stroke-miterlimit="10" x1="17.72%" x2="9.27%" y1="33.78%" y2="22.69%"/>
<line fill="none" stroke="black" stroke-width="0.25" stroke-miterlimit="10" x1="9.27%" x2="0.48%" y1="22.69%" y2="11.93%"/>
<line fill="none" stroke="black" stroke-width="0.25" stroke-miterlimit="10" x1="5.59%" x2="12.25%" y1="56.13%" y2="71.76%"/>
<line fill="none" stroke="black" stroke-width="0.25" stroke-miterlimit="10" x1="36.50%" x2="48.87%" y1="30.08%" y2="28.57%"/></svg>