<?xml version="1.0" encoding="utf-8"?><!-- Generator: Adobe Illustrator 16.0.0, SVG Export Plug-In . SVG Version: 6.00 Build 0)  --><!DOCTYPE svg PUBLIC "-//W3C//DTD SVG 1.1//EN" "http://www.w3.org/Graphics/SVG/1.1/DTD/svg11.dtd"><svg version="1.1" id="Layer_1" xmlns="http://www.w3.org/2000/svg" xmlns:xlink="http://www.w3.org/1999/xlink" x="0px" y="0px"	width="100%" height="100%" xml:space="preserve"><line fill="none" stroke="#FFFFFF" stroke-width="0.25" stroke-miterlimit="10" x1="0.00%" x2="25.78%" y1="0.00%" y2="14.28%"/><line fill="none" stroke="#FFFFFF" stroke-width="0.25" stroke-miterlimit="10" x1="25.78%" x2="17.70%" y1="14.28%" y2="33.77%"/><line fill="none" stroke="#FFFFFF" stroke-width="0.25" stroke-miterlimit="10" x1="17.70%" x2="36.47%" y1="33.77%" y2="30.07%"/><line fill="none" stroke="#FFFFFF" stroke-width="0.25" stroke-miterlimit="10" x1="76.14%" x2="81.84%" y1="52.24%" y2="24.02%"/><line fill="none" stroke="#FFFFFF" stroke-width="0.25" stroke-miterlimit="10" x1="81.84%" x2="100.13%" y1="24.02%" y2="50.06%"/><line fill="none" stroke="#FFFFFF" stroke-width="0.25" stroke-miterlimit="10" x1="0.00%" x2="9.26%" y1="26.37%" y2="22.68%"/><line fill="none" stroke="#FFFFFF" stroke-width="0.25" stroke-miterlimit="10" x1="9.26%" x2="5.58%" y1="22.68%" y2="56.11%"/><line fill="none" stroke="#FFFFFF" stroke-width="0.25" stroke-miterlimit="10" x1="5.58%" x2="21.74%" y1="56.11%" y2="52.24%"/><line fill="none" stroke="#FFFFFF" stroke-width="0.25" stroke-miterlimit="10" x1="21.74%" x2="21.74%" y1="52.24%" y2="91.22%"/><line fill="none" stroke="#FFFFFF" stroke-width="0.25" stroke-miterlimit="10" x1="21.74%" x2="50.01%" y1="91.22%" y2="76.77%"/><line fill="none" stroke="#FFFFFF" stroke-width="0.25" stroke-miterlimit="10" x1="50.01%" x2="52.03%" y1="76.77%" y2="90.21%"/><line fill="none" stroke="#FFFFFF" stroke-width="0.25" stroke-miterlimit="10" x1="52.03%" x2="57.73%" y1="90.21%" y2="65.18%"/><line fill="none" stroke="#FFFFFF" stroke-width="0.25" stroke-miterlimit="10" x1="57.73%" x2="84.10%" y1="65.18%" y2="83.32%"/><line fill="none" stroke="#FFFFFF" stroke-width="0.25" stroke-miterlimit="10" x1="84.10%" x2="89.20%" y1="80.97%" y2="60.31%"/><line fill="none" stroke="#FFFFFF" stroke-width="0.25" stroke-miterlimit="10" x1="89.20%" x2="99.42%" y1="60.31%" y2="99.95%"/><line fill="none" stroke="#FFFFFF" stroke-width="0.25" stroke-miterlimit="10" x1="28.74%" x2="43.12%" y1="0.00%" y2="9.58%"/><line fill="none" stroke="#FFFFFF" stroke-width="0.25" stroke-miterlimit="10" x1="43.12%" x2="41.10%" y1="9.58%" y2="20.33%"/><line fill="none" stroke="#FFFFFF" stroke-width="0.25" stroke-miterlimit="10" x1="41.10%" x2="50.96%" y1="20.33%" y2="15.96%"/><line fill="none" stroke="#FFFFFF" stroke-width="0.25" stroke-miterlimit="10" x1="50.96%" x2="68.54%" y1="15.96%" y2="26.37%"/><line fill="none" stroke="#FFFFFF" stroke-width="0.25" stroke-miterlimit="10" x1="68.54%" x2="65.92%" y1="26.37%" y2="0.00%"/><line fill="none" stroke="#FFFFFF" stroke-width="0.25" stroke-miterlimit="10" x1="65.92%" x2="100.13%" y1="0.00%" y2="9.58%"/><line fill="none" stroke="#FFFFFF" stroke-width="0.25" stroke-miterlimit="10" x1="100.13%" x2="81.84%" y1="9.58%" y2="24.02%"/><line fill="none" stroke="#FFFFFF" stroke-width="0.25" stroke-miterlimit="10" x1="81.84%" x2="65.92%" y1="24.02%" y2="0.00%"/><line fill="none" stroke="#FFFFFF" stroke-width="0.25" stroke-miterlimit="10" x1="48.82%" x2="50.96%" y1="28.56%" y2="15.96%"/><line fill="none" stroke="#FFFFFF" stroke-width="0.25" stroke-miterlimit="10" x1="36.47%" x2="41.10%" y1="30.07%" y2="20.33%"/><line fill="none" stroke="#FFFFFF" stroke-width="0.25" stroke-miterlimit="10" x1="9.26%" x2="25.78%" y1="22.68%" y2="14.28%"/><line fill="none" stroke="#FFFFFF" stroke-width="0.25" stroke-miterlimit="10" x1="17.70%" x2="5.58%" y1="33.77%" y2="56.11%"/><line fill="none" stroke="#FFFFFF" stroke-width="0.25" stroke-miterlimit="10" x1="35.28%" x2="21.74%" y1="69.71%" y2="91.22%"/><line fill="none" stroke="#FFFFFF" stroke-width="0.25" stroke-miterlimit="10" x1="35.28%" x2="50.01%" y1="69.71%" y2="77.11%"/><line fill="none" stroke="#FFFFFF" stroke-width="0.25" stroke-miterlimit="10" x1="89.20%" x2="81.84%" y1="60.31%" y2="24.02%"/><line fill="none" stroke="#FFFFFF" stroke-width="0.25" stroke-miterlimit="10" x1="46.09%" x2="52.03%" y1="0.00%" y2="4.70%"/><line fill="none" stroke="#FFFFFF" stroke-width="0.25" stroke-miterlimit="10" x1="52.03%" x2="50.01%" y1="4.70%" y2="8.40%"/><line fill="none" stroke="#FFFFFF" stroke-width="0.25" stroke-miterlimit="10" x1="50.01%" x2="61.88%" y1="8.40%" y2="9.58%"/><line fill="none" stroke="#FFFFFF" stroke-width="0.25" stroke-miterlimit="10" x1="61.88%" x2="59.75%" y1="9.58%" y2="0.00%"/><line fill="none" stroke="#FFFFFF" stroke-width="0.25" stroke-miterlimit="10" x1="61.88%" x2="68.54%" y1="9.58%" y2="26.37%"/><line fill="none" stroke="#FFFFFF" stroke-width="0.25" stroke-miterlimit="10" x1="50.01%" x2="41.10%" y1="8.40%" y2="20.33%"/><line fill="none" stroke="#FFFFFF" stroke-width="0.25" stroke-miterlimit="10" x1="0.00%" x2="12.23%" y1="76.77%" y2="71.73%"/><line fill="none" stroke="#FFFFFF" stroke-width="0.25" stroke-miterlimit="10" x1="12.23%" x2="9.26%" y1="71.73%" y2="99.78%"/><line fill="none" stroke="#FFFFFF" stroke-width="0.25" stroke-miterlimit="10" x1="33.97%" x2="39.32%" y1="99.95%" y2="96.26%"/><line fill="none" stroke="#FFFFFF" stroke-width="0.25" stroke-miterlimit="10" x1="39.32%" x2="42.64%" y1="96.26%" y2="99.95%"/><line fill="none" stroke="#FFFFFF" stroke-width="0.25" stroke-miterlimit="10" x1="67.94%" x2="66.75%" y1="99.95%" y2="89.37%"/><line fill="none" stroke="#FFFFFF" stroke-width="0.25" stroke-miterlimit="10" x1="66.75%" x2="81.84%" y1="89.20%" y2="99.95%"/><line fill="none" stroke="#FFFFFF" stroke-width="0.25" stroke-miterlimit="10" x1="89.44%" x2="89.80%" y1="61.32%" y2="99.95%"/><line fill="none" stroke="#FFFFFF" stroke-width="0.25" stroke-miterlimit="10" x1="12.23%" x2="21.74%" y1="71.73%" y2="52.24%"/><line fill="none" stroke="#FFFFFF" stroke-width="0.25" stroke-miterlimit="10" x1="21.74%" x2="16.99%" y1="91.22%" y2="100.29%"/><line fill="none" stroke="#FFFFFF" stroke-width="0.25" stroke-miterlimit="10" x1="50.01%" x2="39.32%" y1="76.77%" y2="96.26%"/><line fill="none" stroke="#FFFFFF" stroke-width="0.25" stroke-miterlimit="10" x1="52.03%" x2="59.75%" y1="90.21%" y2="99.95%"/><line fill="none" stroke="#FFFFFF" stroke-width="0.25" stroke-miterlimit="10" x1="52.03%" x2="48.82%" y1="90.21%" y2="99.78%"/><line fill="none" stroke="#FFFFFF" stroke-width="0.25" stroke-miterlimit="10" x1="57.73%" x2="66.75%" y1="65.18%" y2="89.54%"/><line fill="none" stroke="#FFFFFF" stroke-width="0.25" stroke-miterlimit="10" x1="50.01%" x2="57.73%" y1="76.94%" y2="65.18%"/><line fill="none" stroke="#FFFFFF" stroke-width="0.25" stroke-miterlimit="10" x1="84.10%" x2="89.80%" y1="80.97%" y2="99.95%"/><line fill="none" stroke="#FFFFFF" stroke-width="0.25" stroke-miterlimit="10" x1="89.20%" x2="100.13%" y1="60.31%" y2="50.06%"/><line fill="none" stroke="#FFFFFF" stroke-width="0.25" stroke-miterlimit="10" x1="5.58%" x2="0.00%" y1="56.11%" y2="65.52%"/><line fill="none" stroke="#FFFFFF" stroke-width="0.25" stroke-miterlimit="10" x1="36.47%" x2="43.12%" y1="30.07%" y2="9.58%"/><line fill="none" stroke="#FFFFFF" stroke-width="0.25" stroke-miterlimit="10" x1="43.12%" x2="25.78%" y1="9.58%" y2="14.28%"/><line fill="none" stroke="#FFFFFF" stroke-width="0.25" stroke-miterlimit="10" x1="52.03%" x2="66.75%" y1="90.21%" y2="89.37%"/><line fill="none" stroke="#FFFFFF" stroke-width="0.25" stroke-miterlimit="10" x1="12.23%" x2="21.74%" y1="71.73%" y2="91.22%"/><line fill="none" stroke="#FFFFFF" stroke-width="0.25" stroke-miterlimit="10" x1="41.10%" x2="48.82%" y1="20.33%" y2="28.56%"/><line fill="none" stroke="#FFFFFF" stroke-width="0.25" stroke-miterlimit="10" x1="50.01%" x2="50.96%" y1="8.40%" y2="15.96%"/><line fill="none" stroke="#FFFFFF" stroke-width="0.25" stroke-miterlimit="10" x1="43.12%" x2="52.03%" y1="9.58%" y2="4.70%"/><line fill="none" stroke="#FFFFFF" stroke-width="0.25" stroke-miterlimit="10" x1="52.03%" x2="61.88%" y1="4.70%" y2="9.58%"/><line fill="none" stroke="#FFFFFF" stroke-width="0.25" stroke-miterlimit="10" x1="52.03%" x2="28.74%" y1="4.70%" y2="0.00%"/><line fill="none" stroke="#FFFFFF" stroke-width="0.25" stroke-miterlimit="10" x1="52.03%" x2="59.75%" y1="4.70%" y2="0.00%"/><line fill="none" stroke="#FFFFFF" stroke-width="0.25" stroke-miterlimit="10" x1="50.96%" x2="61.88%" y1="15.96%" y2="9.58%"/><line fill="none" stroke="#FFFFFF" stroke-width="0.25" stroke-miterlimit="10" x1="48.82%" x2="68.54%" y1="28.56%" y2="26.37%"/><line fill="none" stroke="#FFFFFF" stroke-width="0.25" stroke-miterlimit="10" x1="61.88%" x2="65.92%" y1="9.58%" y2="0.00%"/><line fill="none" stroke="#FFFFFF" stroke-width="0.25" stroke-miterlimit="10" x1="25.78%" x2="28.74%" y1="14.28%" y2="0.00%"/><line fill="none" stroke="#FFFFFF" stroke-width="0.25" stroke-miterlimit="10" x1="36.47%" x2="25.78%" y1="30.07%" y2="14.28%"/><line fill="none" stroke="#FFFFFF" stroke-width="0.25" stroke-miterlimit="10" x1="68.54%" x2="81.84%" y1="26.37%" y2="24.02%"/><line fill="none" stroke="#FFFFFF" stroke-width="0.25" stroke-miterlimit="10" x1="12.23%" x2="0.48%" y1="71.73%" y2="94.58%"/><line fill="none" stroke="#FFFFFF" stroke-width="0.25" stroke-miterlimit="10" x1="21.74%" x2="39.32%" y1="91.22%" y2="96.26%"/><line fill="none" stroke="#FFFFFF" stroke-width="0.25" stroke-miterlimit="10" x1="66.75%" x2="60.82%" y1="89.37%" y2="99.95%"/><line fill="none" stroke="#FFFFFF" stroke-width="0.25" stroke-miterlimit="10" x1="52.03%" x2="39.32%" y1="90.21%" y2="96.26%"/><line fill="none" stroke="#FFFFFF" stroke-width="0.25" stroke-miterlimit="10" x1="66.75%" x2="84.10%" y1="89.37%" y2="80.97%"/><line fill="none" stroke="#FFFFFF" stroke-width="0.25" stroke-miterlimit="10" x1="89.20%" x2="100.13%" y1="60.31%" y2="66.52%"/><line fill="none" stroke="#FFFFFF" stroke-width="0.25" stroke-miterlimit="10" x1="84.10%" x2="81.84%" y1="80.97%" y2="99.95%"/><line fill="none" stroke="#FFFFFF" stroke-width="0.25" stroke-miterlimit="10" x1="21.74%" x2="33.97%" y1="91.22%" y2="99.95%"/><line fill="none" stroke="#FFFFFF" stroke-width="0.25" stroke-miterlimit="10" x1="21.74%" x2="9.26%" y1="91.22%" y2="99.78%"/><line fill="none" stroke="#FFFFFF" stroke-width="0.25" stroke-miterlimit="10" x1="9.26%" x2="0.48%" y1="99.78%" y2="94.58%"/><line fill="none" stroke="#FFFFFF" stroke-width="0.25" stroke-miterlimit="10" x1="89.20%" x2="76.14%" y1="60.31%" y2="52.24%"/><line fill="none" stroke="#FFFFFF" stroke-width="0.25" stroke-miterlimit="10" x1="17.70%" x2="21.74%" y1="33.77%" y2="52.24%"/><line fill="none" stroke="#FFFFFF" stroke-width="0.25" stroke-miterlimit="10" x1="17.70%" x2="9.26%" y1="33.77%" y2="22.68%"/><line fill="none" stroke="#FFFFFF" stroke-width="0.25" stroke-miterlimit="10" x1="9.26%" x2="0.48%" y1="22.68%" y2="11.93%"/></svg>