
<svg version="1.1" id="Layer_1" xmlns="http://www.w3.org/2000/svg" xmlns:xlink="http://www.w3.org/1999/xlink" x="0px" y="0px"
	 width="100%" height="612px" viewBox="0 0 792 612" enable-background="new 0 0 1000 612" xml:space="preserve">
<line fill="none" stroke="#000000" stroke-miterlimit="10" x1="0" y1="0" x2="146" y2="199"/>
<line fill="none" stroke="#000000" stroke-miterlimit="10" x1="146" y1="199" x2="214" y2="73"/>
<line fill="none" stroke="#000000" stroke-miterlimit="10" x1="214" y1="73" x2="313" y2="324"/>
<line fill="none" stroke="#000000" stroke-miterlimit="10" x1="313" y1="324" x2="342" y2="177"/>
<line fill="none" stroke="#000000" stroke-miterlimit="10" x1="342" y1="177" x2="544" y2="250.5"/>
<line fill="none" stroke="#000000" stroke-miterlimit="10" x1="544" y1="250.5" x2="499" y2="112"/>
<line fill="none" stroke="#000000" stroke-miterlimit="10" x1="499" y1="112" x2="696" y2="146"/>
<line fill="none" stroke="#000000" stroke-miterlimit="10" x1="696" y1="146" x2="792" y2="0"/>
<line fill="none" stroke="#000000" stroke-miterlimit="10" x1="544" y1="250.5" x2="423" y2="295"/>
<line fill="none" stroke="#000000" stroke-miterlimit="10" x1="423" y1="295" x2="588" y2="391"/>
<line fill="none" stroke="#000000" stroke-miterlimit="10" x1="588" y1="391" x2="462" y2="468"/>
<line fill="none" stroke="#000000" stroke-miterlimit="10" x1="462" y1="468" x2="627" y2="526"/>
<line fill="none" stroke="#000000" stroke-miterlimit="10" x1="627" y1="526" x2="559" y2="612"/>
<line fill="none" stroke="#000000" stroke-miterlimit="10" x1="559" y1="617" x2="559" y2="612"/>
<line fill="none" stroke="#000000" stroke-miterlimit="10" x1="0" y1="612" x2="34" y2="479"/>
<line fill="none" stroke="#000000" stroke-miterlimit="10" x1="34" y1="479" x2="146" y2="518"/>
<line fill="none" stroke="#000000" stroke-miterlimit="10" x1="146" y1="518" x2="186" y2="391"/>
<line fill="none" stroke="#000000" stroke-miterlimit="10" x1="186" y1="391" x2="351" y2="518"/>
<line fill="none" stroke="#000000" stroke-miterlimit="10" x1="351" y1="518" x2="396" y2="406"/>
<line fill="none" stroke="#000000" stroke-miterlimit="10" x1="396" y1="406" x2="462" y2="468"/>
<line fill="none" stroke="#000000" stroke-miterlimit="10" x1="313" y1="324" x2="186" y2="391"/>
<line fill="none" stroke="#000000" stroke-miterlimit="10" x1="186" y1="391" x2="96" y2="300"/>
<line fill="none" stroke="#000000" stroke-miterlimit="10" x1="96" y1="300" x2="0" y2="374"/>
<line fill="none" stroke="#000000" stroke-miterlimit="10" x1="96" y1="300" x2="146" y2="199"/>
<line fill="none" stroke="#000000" stroke-miterlimit="10" x1="214" y1="73" x2="298" y2="0"/>
<line fill="none" stroke="#000000" stroke-miterlimit="10" x1="342" y1="177" x2="383" y2="0"/>
<line fill="none" stroke="#000000" stroke-miterlimit="10" x1="499" y1="112" x2="521.5" y2="0"/>
<line fill="none" stroke="#000000" stroke-miterlimit="10" x1="696" y1="146" x2="797" y2="234"/>
<line fill="none" stroke="#000000" stroke-miterlimit="10" x1="423" y1="295" x2="313" y2="324"/>
<line fill="none" stroke="#000000" stroke-miterlimit="10" x1="313" y1="324" x2="396" y2="406"/>
<line fill="none" stroke="#000000" stroke-miterlimit="10" x1="351" y1="518" x2="291" y2="617"/>
<line fill="none" stroke="#000000" stroke-miterlimit="10" x1="146" y1="518" x2="160" y2="612"/>
<line fill="none" stroke="#000000" stroke-miterlimit="10" x1="588" y1="391" x2="684" y2="318"/>
<line fill="none" stroke="#000000" stroke-miterlimit="10" x1="684" y1="318" x2="744" y2="468"/>
<line fill="none" stroke="#000000" stroke-miterlimit="10" x1="744" y1="468" x2="792" y2="474"/>
<line fill="none" stroke="#000000" stroke-miterlimit="10" x1="627" y1="526" x2="779" y2="603"/>
<line fill="none" stroke="#000000" stroke-miterlimit="10" x1="779" y1="603" x2="797" y2="612"/>
<line fill="none" stroke="#000000" stroke-miterlimit="10" x1="627" y1="526" x2="744" y2="468"/>
<line fill="none" stroke="#000000" stroke-miterlimit="10" x1="684" y1="318" x2="696" y2="146"/>
<line fill="none" stroke="#000000" stroke-miterlimit="10" x1="544" y1="250.5" x2="696" y2="146"/>
<line fill="none" stroke="#000000" stroke-miterlimit="10" x1="544" y1="250.5" x2="588" y2="384"/>
<line fill="none" stroke="#000000" stroke-miterlimit="10" x1="588" y1="384" x2="588" y2="391"/>
<line fill="none" stroke="#000000" stroke-miterlimit="10" x1="544" y1="250.5" x2="684" y2="318"/>
<line fill="none" stroke="#000000" stroke-miterlimit="10" x1="462" y1="468" x2="462" y2="612"/>
<line fill="none" stroke="#000000" stroke-miterlimit="10" x1="351" y1="518" x2="462" y2="468"/>
<line fill="none" stroke="#000000" stroke-miterlimit="10" x1="351" y1="518" x2="383" y2="612"/>
<line fill="none" stroke="#000000" stroke-miterlimit="10" x1="34" y1="479" x2="0" y2="462"/>
<line fill="none" stroke="#000000" stroke-miterlimit="10" x1="214" y1="73" x2="106" y2="0"/>
<line fill="none" stroke="#000000" stroke-miterlimit="10" x1="146" y1="199" x2="0" y2="213.75"/>
<line fill="none" stroke="#000000" stroke-miterlimit="10" x1="499" y1="112" x2="342" y2="177"/>
<line fill="none" stroke="#000000" stroke-miterlimit="10" x1="423" y1="295" x2="342" y2="177"/>
<line fill="none" stroke="#000000" stroke-miterlimit="10" x1="146" y1="199" x2="186" y2="391"/>
<line fill="none" stroke="#000000" stroke-miterlimit="10" x1="146" y1="199" x2="313" y2="324"/>
<line fill="none" stroke="#000000" stroke-miterlimit="10" x1="588" y1="391" x2="744" y2="468"/>
<line fill="none" stroke="#000000" stroke-miterlimit="10" x1="588" y1="391" x2="627" y2="526"/>
<line fill="none" stroke="#000000" stroke-miterlimit="10" x1="423" y1="295" x2="462" y2="468"/>
<line fill="none" stroke="#000000" stroke-miterlimit="10" x1="499" y1="112" x2="383" y2="0"/>
<line fill="none" stroke="#000000" stroke-miterlimit="10" x1="214" y1="73" x2="342" y2="177"/>
<line fill="none" stroke="#000000" stroke-miterlimit="10" x1="186" y1="391" x2="396" y2="406"/>
<radialGradient id="SVGID_1_" cx="146" cy="197.25" r="10.8663" gradientUnits="userSpaceOnUse">
	<stop  offset="0" style="stop-color:#FFFFFF"/>
	<stop  offset="1" style="stop-color:#000000"/>
</radialGradient>
<ellipse fill="url(#SVGID_1_)" stroke="#000000" stroke-miterlimit="10" cx="146" cy="197.25" rx="9.754" ry="11.875"/>
<radialGradient id="SVGID_2_" cx="96" cy="300" r="10.8663" gradientUnits="userSpaceOnUse">
	<stop  offset="0" style="stop-color:#FFFFFF"/>
	<stop  offset="1" style="stop-color:#000000"/>
</radialGradient>
<ellipse fill="url(#SVGID_2_)" stroke="#000000" stroke-miterlimit="10" cx="96" cy="300" rx="9.754" ry="11.875"/>
<radialGradient id="SVGID_3_" cx="186" cy="391" r="10.8663" gradientUnits="userSpaceOnUse">
	<stop  offset="0" style="stop-color:#FFFFFF"/>
	<stop  offset="1" style="stop-color:#000000"/>
</radialGradient>
<ellipse fill="url(#SVGID_3_)" stroke="#000000" stroke-miterlimit="10" cx="186" cy="391" rx="9.754" ry="11.875"/>
<radialGradient id="SVGID_4_" cx="146" cy="518" r="10.8663" gradientUnits="userSpaceOnUse">
	<stop  offset="0" style="stop-color:#FFFFFF"/>
	<stop  offset="1" style="stop-color:#000000"/>
</radialGradient>
<ellipse fill="url(#SVGID_4_)" stroke="#000000" stroke-miterlimit="10" cx="146" cy="518" rx="9.754" ry="11.875"/>
<radialGradient id="SVGID_5_" cx="34" cy="479" r="10.8663" gradientUnits="userSpaceOnUse">
	<stop  offset="0" style="stop-color:#FFFFFF"/>
	<stop  offset="1" style="stop-color:#000000"/>
</radialGradient>
<ellipse fill="url(#SVGID_5_)" stroke="#000000" stroke-miterlimit="10" cx="34" cy="479" rx="9.754" ry="11.875"/>
<radialGradient id="SVGID_6_" cx="214" cy="76.625" r="10.8663" gradientUnits="userSpaceOnUse">
	<stop  offset="0" style="stop-color:#FFFFFF"/>
	<stop  offset="1" style="stop-color:#000000"/>
</radialGradient>
<ellipse fill="url(#SVGID_6_)" stroke="#000000" stroke-miterlimit="10" cx="214" cy="76.625" rx="9.754" ry="11.875"/>
<radialGradient id="SVGID_7_" cx="342" cy="177" r="10.8663" gradientUnits="userSpaceOnUse">
	<stop  offset="0" style="stop-color:#FFFFFF"/>
	<stop  offset="1" style="stop-color:#000000"/>
</radialGradient>
<ellipse fill="url(#SVGID_7_)" stroke="#000000" stroke-miterlimit="10" cx="342" cy="177" rx="9.754" ry="11.875"/>
<radialGradient id="SVGID_8_" cx="313" cy="324" r="10.8663" gradientUnits="userSpaceOnUse">
	<stop  offset="0" style="stop-color:#FFFFFF"/>
	<stop  offset="1" style="stop-color:#000000"/>
</radialGradient>
<ellipse fill="url(#SVGID_8_)" stroke="#000000" stroke-miterlimit="10" cx="313" cy="324" rx="9.754" ry="11.875"/>
<radialGradient id="SVGID_9_" cx="396" cy="410.375" r="10.8663" gradientUnits="userSpaceOnUse">
	<stop  offset="0" style="stop-color:#FFFFFF"/>
	<stop  offset="1" style="stop-color:#000000"/>
</radialGradient>
<ellipse fill="url(#SVGID_9_)" stroke="#000000" stroke-miterlimit="10" cx="396" cy="410.375" rx="9.754" ry="11.875"/>
<radialGradient id="SVGID_10_" cx="351" cy="518" r="10.8663" gradientUnits="userSpaceOnUse">
	<stop  offset="0" style="stop-color:#FFFFFF"/>
	<stop  offset="1" style="stop-color:#000000"/>
</radialGradient>
<ellipse fill="url(#SVGID_10_)" stroke="#000000" stroke-miterlimit="10" cx="351" cy="518" rx="9.754" ry="11.875"/>
<radialGradient id="SVGID_11_" cx="462" cy="468" r="10.8663" gradientUnits="userSpaceOnUse">
	<stop  offset="0" style="stop-color:#FFFFFF"/>
	<stop  offset="1" style="stop-color:#000000"/>
</radialGradient>
<ellipse fill="url(#SVGID_11_)" stroke="#000000" stroke-miterlimit="10" cx="462" cy="468" rx="9.754" ry="11.875"/>
<radialGradient id="SVGID_12_" cx="420.5" cy="295" r="10.8663" gradientUnits="userSpaceOnUse">
	<stop  offset="0" style="stop-color:#FFFFFF"/>
	<stop  offset="1" style="stop-color:#000000"/>
</radialGradient>
<ellipse fill="url(#SVGID_12_)" stroke="#000000" stroke-miterlimit="10" cx="420.5" cy="295" rx="9.754" ry="11.875"/>
<radialGradient id="SVGID_13_" cx="544" cy="250.5" r="10.8663" gradientUnits="userSpaceOnUse">
	<stop  offset="0" style="stop-color:#FFFFFF"/>
	<stop  offset="1" style="stop-color:#000000"/>
</radialGradient>
<ellipse fill="url(#SVGID_13_)" stroke="#000000" stroke-miterlimit="10" cx="544" cy="250.5" rx="9.754" ry="11.875"/>
<radialGradient id="SVGID_14_" cx="499" cy="112" r="10.8663" gradientUnits="userSpaceOnUse">
	<stop  offset="0" style="stop-color:#FFFFFF"/>
	<stop  offset="1" style="stop-color:#000000"/>
</radialGradient>
<ellipse fill="url(#SVGID_14_)" stroke="#000000" stroke-miterlimit="10" cx="499" cy="112" rx="9.754" ry="11.875"/>
<radialGradient id="SVGID_15_" cx="696" cy="140.875" r="10.8663" gradientUnits="userSpaceOnUse">
	<stop  offset="0" style="stop-color:#FFFFFF"/>
	<stop  offset="1" style="stop-color:#000000"/>
</radialGradient>
<ellipse fill="url(#SVGID_15_)" stroke="#000000" stroke-miterlimit="10" cx="696" cy="140.875" rx="9.754" ry="11.875"/>
<radialGradient id="SVGID_16_" cx="684" cy="318" r="10.8663" gradientUnits="userSpaceOnUse">
	<stop  offset="0" style="stop-color:#FFFFFF"/>
	<stop  offset="1" style="stop-color:#000000"/>
</radialGradient>
<ellipse fill="url(#SVGID_16_)" stroke="#000000" stroke-miterlimit="10" cx="684" cy="318" rx="9.754" ry="11.875"/>
<radialGradient id="SVGID_17_" cx="583.2461" cy="387.5" r="10.8663" gradientUnits="userSpaceOnUse">
	<stop  offset="0" style="stop-color:#FFFFFF"/>
	<stop  offset="1" style="stop-color:#000000"/>
</radialGradient>
<ellipse fill="url(#SVGID_17_)" stroke="#000000" stroke-miterlimit="10" cx="583.246" cy="387.5" rx="9.754" ry="11.875"/>
<radialGradient id="SVGID_18_" cx="744" cy="468" r="10.8663" gradientUnits="userSpaceOnUse">
	<stop  offset="0" style="stop-color:#FFFFFF"/>
	<stop  offset="1" style="stop-color:#000000"/>
</radialGradient>
<ellipse fill="url(#SVGID_18_)" stroke="#000000" stroke-miterlimit="10" cx="744" cy="468" rx="9.754" ry="11.875"/>
<radialGradient id="SVGID_19_" cx="627" cy="526" r="10.8663" gradientUnits="userSpaceOnUse">
	<stop  offset="0" style="stop-color:#FFFFFF"/>
	<stop  offset="1" style="stop-color:#000000"/>
</radialGradient>
<ellipse fill="url(#SVGID_19_)" stroke="#000000" stroke-miterlimit="10" cx="627" cy="526" rx="9.754" ry="11.875"/>
</svg>
